<svg width="34" height="34" viewBox="0 0 34 34" fill="none" xmlns="http://www.w3.org/2000/svg">
<path fill-rule="evenodd" clip-rule="evenodd" d="M7.51912 19.0816C6.08181 18.2518 6.18589 16.0487 7.6226 15.2178C10.3096 13.664 13.7853 11.1973 15.4591 8.11148C17.3729 5.12502 21.1887 4.24061 24.2361 6.00003C27.2819 7.75852 28.4234 11.505 26.7961 14.6569C24.9605 17.6467 24.5623 21.8923 24.5603 24.9975C24.5592 26.657 22.7035 27.8484 21.2664 27.0186L7.51912 19.0816Z" stroke="#414141" stroke-width="2" stroke-linecap="round" stroke-linejoin="round"/>
<path d="M13.7179 27.4155C13.7179 28.4726 12.8779 29.305 11.8718 29.305C10.8656 29.305 10.0256 28.4726 10.0256 27.4155C10.0256 26.3585 10.8656 25.5261 11.8718 25.5261C12.8779 25.5261 13.7179 26.3585 13.7179 27.4155Z" fill="#414141" stroke="#414141" stroke-width="1.84615" stroke-linecap="round" stroke-linejoin="round"/>
<path fill-rule="evenodd" clip-rule="evenodd" d="M26.1268 6.41721C26.6446 5.52041 26.3485 4.38013 25.4655 3.87033C24.5825 3.36053 23.447 3.67425 22.9292 4.57105" fill="#414141"/>
<path d="M26.1268 6.41721C26.6446 5.52041 26.3485 4.38013 25.4655 3.87033C24.5825 3.36053 23.447 3.67425 22.9292 4.57105" stroke="#414141" stroke-width="1.84615" stroke-linecap="round" stroke-linejoin="round"/>
</svg>
